<svg width="45" height="45" viewBox="0 0 45 45" fill="none" xmlns="http://www.w3.org/2000/svg">
<rect width="45" height="45" rx="22.5" fill="#33C06F"/>
<path fill-rule="evenodd" clip-rule="evenodd" d="M28.0681 17.8225C28.0681 21.4967 25.8946 24.65 23.0005 24.65C20.1041 24.65 17.9329 21.4967 17.9329 17.8213C17.9329 14.1482 19.8023 12 23.0005 12C26.1987 12 28.0681 14.1471 28.0681 17.8225ZM14.1063 32.8633C14.5399 33.39 16.407 35 23.0005 35C29.594 35 31.46 33.39 31.8947 32.8644C31.935 32.8139 31.9648 32.7555 31.9822 32.6929C31.9996 32.6302 32.0043 32.5645 31.996 32.4999C31.8969 31.4856 31.0028 26.95 23.0005 26.95C14.9982 26.95 14.1041 31.4856 14.0038 32.4999C13.9957 32.5646 14.0006 32.6303 14.0182 32.693C14.0358 32.7557 14.0658 32.8129 14.1063 32.8633Z" fill="black"/>
</svg>
