<svg width="45" height="45" viewBox="0 0 45 45" fill="none" xmlns="http://www.w3.org/2000/svg">
<rect width="45" height="45" rx="22.5" fill="#33C06F"/>
<path opacity="0.5" d="M23 38C31.8365 38 39 30.8365 39 22C39 13.1634 31.8365 6 23 6C14.1634 6 7 13.1634 7 22C7 24.5595 7.60099 26.9786 8.66954 29.124C8.9535 29.6941 9.04802 30.3458 8.88339 30.961L7.93042 34.5227C7.51672 36.0688 8.93122 37.4832 10.4774 37.0696L14.039 36.1166C14.6543 35.952 15.3059 36.0466 15.876 36.3304C18.0214 37.399 20.4405 38 23 38Z" fill="black" fill-opacity="0.7"/>
<path d="M16.32 23.3604C15.591 23.3604 15 23.9514 15 24.6804C15 25.4093 15.591 26.0004 16.32 26.0004H26C26.729 26.0004 27.32 25.4093 27.32 24.6804C27.32 23.9514 26.729 23.3604 26 23.3604H16.32Z" fill="black"/>
<path d="M16.32 17.2002C15.591 17.2002 15 17.7912 15 18.5202C15 19.2492 15.591 19.8402 16.32 19.8402H30.4C31.129 19.8402 31.72 19.2492 31.72 18.5202C31.72 17.7912 31.129 17.2002 30.4 17.2002H16.32Z" fill="black"/>
</svg>
