<svg width="45" height="45" viewBox="0 0 45 45" fill="none" xmlns="http://www.w3.org/2000/svg">
<rect width="45" height="45" rx="22.5" fill="#33C06F"/>
<path fill-rule="evenodd" clip-rule="evenodd" d="M34.4697 20.7818L33.4883 19.9967V32.9184H35.0581C35.5782 32.9184 35.9999 33.3401 35.9999 33.8602C35.9999 34.3805 35.5782 34.8021 35.0581 34.8021H9.94189C9.42171 34.8021 9.00004 34.3805 9.00004 33.8602C9.00004 33.3401 9.42171 32.9184 9.94189 32.9184H11.5117V19.9967L10.5303 20.7818C10.1241 21.1068 9.53137 21.0409 9.20643 20.6348C8.88147 20.2285 8.94733 19.6358 9.35352 19.3109L19.5581 11.1472C21.2781 9.77125 23.722 9.77125 25.4418 11.1472L35.6464 19.3109C36.0527 19.6358 36.1185 20.2285 35.7936 20.6348C35.4686 21.0409 34.876 21.1068 34.4697 20.7818ZM22.5 14.7091C20.5926 14.7091 19.0465 16.2553 19.0465 18.1626C19.0465 20.0699 20.5926 21.6161 22.5 21.6161C24.4073 21.6161 25.9535 20.0699 25.9535 18.1626C25.9535 16.2553 24.4073 14.7091 22.5 14.7091ZM24.6925 22.9492C24.1163 22.8719 23.397 22.8719 22.562 22.8719H22.4381C21.6031 22.8719 20.8836 22.8719 20.3076 22.9492C19.6902 23.0322 19.0983 23.2195 18.6183 23.6996C18.1383 24.1796 17.9511 24.7714 17.8681 25.3888C17.7906 25.9648 17.7907 26.6843 17.7907 27.5193V32.9184H19.6744H25.3255H27.2093V27.5193V27.364C27.209 26.5949 27.2045 25.9289 27.1319 25.3888C27.0489 24.7714 26.8618 24.1796 26.3817 23.6996C25.9017 23.2195 25.3099 23.0322 24.6925 22.9492Z" fill="black"/>
<g opacity="0.5">
<path fill-rule="evenodd" clip-rule="evenodd" d="M20.9297 18.1625C20.9297 17.2956 21.6324 16.5928 22.4995 16.5928C23.3665 16.5928 24.0692 17.2956 24.0692 18.1625C24.0692 19.0296 23.3665 19.7323 22.4995 19.7323C21.6324 19.7323 20.9297 19.0296 20.9297 18.1625Z" fill="black"/>
<path fill-rule="evenodd" clip-rule="evenodd" d="M20.9297 18.1625C20.9297 17.2956 21.6324 16.5928 22.4995 16.5928C23.3665 16.5928 24.0692 17.2956 24.0692 18.1625C24.0692 19.0296 23.3665 19.7323 22.4995 19.7323C21.6324 19.7323 20.9297 19.0296 20.9297 18.1625Z" fill="black"/>
</g>
<path opacity="0.5" d="M22.5604 22.8721C23.3953 22.8721 24.1147 22.8719 24.6908 22.9494C25.3082 23.0324 25.9 23.2197 26.3801 23.6997C26.86 24.1797 27.0473 24.7715 27.1303 25.389C27.2029 25.929 27.2074 26.595 27.2077 27.3641V32.9186H17.7891V27.5193C17.789 26.6845 17.789 25.965 17.8664 25.389C17.9494 24.7715 18.1366 24.1797 18.6167 23.6997C19.0967 23.2197 19.6885 23.0324 20.306 22.9494C20.882 22.8719 21.6015 22.8721 22.4363 22.8721H22.5604Z" fill="black"/>
<path opacity="0.5" d="M27.5263 10H30.6659C31.0126 10 31.2938 10.2811 31.2938 10.6279V15.8264L26.8984 12.3101V10.6279C26.8984 10.2811 27.1796 10 27.5263 10Z" fill="black"/>
</svg>
