<svg width="45" height="45" viewBox="0 0 45 45" fill="none" xmlns="http://www.w3.org/2000/svg">
<rect width="45" height="45" rx="22.5" fill="#33C06F"/>
<path d="M21.8278 9.15319C21.8749 9.18727 21.8947 9.24799 21.8768 9.30323L21.5311 10.3671C21.4907 10.4909 21.6325 10.5938 21.7377 10.5172L22.6427 9.85991C22.6897 9.82569 22.7534 9.82569 22.8005 9.85991L23.7054 10.5173C23.8107 10.5938 23.9525 10.4909 23.9123 10.3671L23.5665 9.3033C23.5485 9.24806 23.5683 9.18734 23.6153 9.15325L24.5203 8.48699C24.6255 8.41047 24.5716 8.23525 24.4414 8.23525H23.3228C23.2647 8.23525 23.213 8.20652 23.1951 8.15115L22.8494 7.09171C22.8092 6.96804 22.6341 6.97014 22.5939 7.09381L22.2482 8.15007C22.2301 8.20531 22.1786 8.23525 22.1204 8.23525H21.0017C20.8717 8.23525 20.8175 8.41047 20.9228 8.48699L21.8278 9.15319Z" fill="black"/>
<path d="M32.945 12.9105C32.9039 12.8693 32.8939 12.8063 32.9203 12.7546L33.4282 11.7578C33.4872 11.6419 33.3633 11.5181 33.2474 11.5771L32.2507 12.0849C32.1989 12.1114 32.1359 12.1014 32.0948 12.0603L31.3038 11.2693C31.2119 11.1773 31.0559 11.2568 31.0762 11.3853L31.2512 12.4901C31.2603 12.5476 31.2312 12.6045 31.1795 12.6308L30.1828 13.1387C30.0669 13.1977 30.0942 13.3707 30.2228 13.391L31.3276 13.566C31.3852 13.5752 31.4302 13.6202 31.4393 13.6777L31.6142 14.7825C31.6346 14.9111 31.8075 14.9384 31.8665 14.8224L32.3744 13.8257C32.4008 13.7739 32.4577 13.745 32.5152 13.7541L33.62 13.929C33.7485 13.9494 33.8281 13.7934 33.7359 13.7014L32.945 12.9105Z" fill="black"/>
<path d="M37.916 22.2804L36.874 21.9347C36.8185 21.9167 36.8028 21.8651 36.8028 21.8069V20.6882C36.8028 20.5582 36.6144 20.504 36.538 20.6094L35.8699 21.5143C35.8356 21.5613 35.7694 21.5811 35.7141 21.5632L34.6476 21.2174C34.5239 21.1772 34.4196 21.3188 34.496 21.4241L35.153 22.3291C35.1871 22.3762 35.1869 22.4399 35.1527 22.487L34.495 23.392C34.4186 23.4973 34.5213 23.6389 34.645 23.5987L35.7088 23.253C35.7642 23.2351 35.8247 23.2547 35.859 23.3018L36.5381 24.2067C36.6145 24.312 36.8028 24.258 36.8028 24.1279V23.0092C36.8028 22.951 36.8185 22.8994 36.874 22.8815L37.927 22.5357C38.0506 22.4957 38.0397 22.3206 37.916 22.2804Z" fill="black"/>
<path d="M15.0764 13.0952C15.2049 13.0748 15.2323 12.9019 15.1164 12.8428L14.1198 12.3349C14.0678 12.3086 14.0388 12.2517 14.0481 12.1942L14.2229 11.0894C14.2433 10.9608 14.0873 10.8814 13.9953 10.9734L13.2045 11.7644C13.1633 11.8055 13.1002 11.8155 13.0485 11.789L12.0517 11.2812C11.9358 11.2222 11.812 11.346 11.8711 11.4619L12.3788 12.4587C12.4053 12.5105 12.3954 12.5734 12.3542 12.6146L11.5632 13.4055C11.4713 13.4975 11.5507 13.6536 11.6792 13.6331L12.784 13.4582C12.8416 13.449 12.8982 13.478 12.9247 13.5298L13.4326 14.5265C13.4917 14.6425 13.6646 14.6151 13.6848 14.4866L13.8599 13.3818C13.869 13.3243 13.9141 13.2792 13.9716 13.2701L15.0764 13.0952Z" fill="black"/>
<path d="M10.513 21.0061C10.5894 20.901 10.4865 20.7592 10.3628 20.7996L9.29897 21.1451C9.2436 21.1632 9.18301 21.1434 9.14892 21.0963L8.49432 20.1914C8.41793 20.0861 8.2545 20.1401 8.2545 20.2703V21.3889C8.2545 21.4471 8.2141 21.4987 8.15861 21.5166L7.09324 21.8624C6.96957 21.9025 6.96855 22.0776 7.09241 22.1179L8.15886 22.4635C8.21423 22.4815 8.25443 22.533 8.25443 22.5913V23.7099C8.25443 23.8399 8.41786 23.8941 8.49425 23.7888L9.15039 22.8838C9.1846 22.8368 9.24424 22.817 9.2996 22.835L10.3631 23.1807C10.4869 23.221 10.5894 23.0793 10.513 22.9741L9.85551 22.0691C9.8213 22.022 9.82136 21.9583 9.85558 21.9112L10.513 21.0061Z" fill="black"/>
<path d="M29.793 22.5376C29.6716 19.9045 28.1516 17.6367 25.9576 16.4616C25.7846 16.3673 25.6063 16.2808 25.4243 16.202C24.5359 15.8158 23.5555 15.6016 22.525 15.6016C18.6544 15.6016 15.494 18.6249 15.2674 22.4398L15.2693 22.4394V22.4523C15.2693 22.5931 15.2627 23.2231 15.2627 23.2231L15.1543 23.4633H15.8788C16.151 22.5713 16.987 21.9617 17.9731 21.9617C19.1802 21.9617 20.1623 22.9701 20.1623 24.1771C20.1623 25.3841 19.1802 26.3467 17.9731 26.3467C16.8177 26.3467 15.8687 25.4385 15.7899 24.2916H14.9254C14.907 24.2916 14.8895 24.3211 14.8718 24.3186L13.9624 26.8586C13.8347 27.2128 14.097 27.6048 14.4734 27.6048H15.2565L15.2506 31.6499C15.2506 32.4485 15.8983 33.0842 16.697 33.0842H19.2833V36.8875C19.2833 37.4801 19.8785 37.9265 20.4711 37.9265H27.1251C27.7177 37.9265 28.2034 37.4801 28.2034 36.8875V29.2471C28.2034 28.2049 28.4784 27.1873 28.9654 26.2656C29.4741 25.3028 29.7719 24.2122 29.7997 23.0541C29.8009 22.996 29.8015 22.9366 29.8015 22.8772C29.8014 22.7636 29.7981 22.6499 29.793 22.5376ZM22.6421 21.9978H22.0231V22.6218C22.0231 22.8396 21.8266 23.0161 21.6089 23.0161C21.3913 23.0161 21.1948 22.8396 21.1948 22.6218V21.9978H20.634C20.4163 21.9978 20.2397 21.8014 20.2397 21.5837C20.2397 21.3661 20.4163 21.1696 20.634 21.1696H21.1948V20.6137C21.1948 20.396 21.3913 20.2194 21.6089 20.2194C21.8266 20.2194 22.0231 20.3959 22.0231 20.6137V21.1696H22.6421C22.8598 21.1696 23.0364 21.3661 23.0364 21.5837C23.0364 21.8014 22.8598 21.9978 22.6421 21.9978Z" fill="black"/>
<path d="M18.955 25.1914C19.2059 24.9377 19.3636 24.5893 19.3636 24.2023C19.3636 23.4295 18.7357 22.8018 17.9629 22.8018C17.5801 22.8018 17.2318 22.9552 16.9781 23.2061C16.7217 23.4612 16.5625 23.8139 16.5625 24.2024C16.5625 24.9751 17.1903 25.603 17.9629 25.603C18.3501 25.6029 18.7012 25.4452 18.955 25.1914Z" fill="black"/>
</svg>
