<svg width="45" height="45" viewBox="0 0 45 45" fill="none" xmlns="http://www.w3.org/2000/svg">
<rect width="45" height="45" rx="22.5" fill="#33C06F"/>
<path d="M17.4021 31.7998C17.1545 31.7998 16.9172 31.8981 16.7421 32.0732C16.5671 32.2482 16.4688 32.4856 16.4688 32.7331H18.3354C18.3354 32.4856 18.2371 32.2482 18.062 32.0732C17.887 31.8981 17.6496 31.7998 17.4021 31.7998Z" fill="black"/>
<path d="M19.2693 29.9336C19.0217 29.9336 18.7843 30.0319 18.6093 30.207C18.4343 30.382 18.3359 30.6194 18.3359 30.8669H20.2026C20.2026 30.6194 20.1043 30.382 19.9292 30.207C19.7542 30.0319 19.5168 29.9336 19.2693 29.9336Z" fill="black"/>
<path d="M26.738 29.9336C26.4905 29.9336 26.2531 30.0319 26.0781 30.207C25.903 30.382 25.8047 30.6194 25.8047 30.8669H27.6714C27.6714 30.6194 27.573 30.382 27.398 30.207C27.223 30.0319 26.9856 29.9336 26.738 29.9336Z" fill="black"/>
<path d="M11.8047 35.9998H34.2047C34.2047 33.0294 33.0247 30.1806 30.9243 28.0802C28.8239 25.9798 25.9751 24.7998 23.0047 24.7998C20.0343 24.7998 17.1855 25.9798 15.0851 28.0802C12.9847 30.1806 11.8047 33.0294 11.8047 35.9998ZM21.6047 32.7124C21.6047 32.899 21.5679 33.0837 21.4965 33.2561C21.4251 33.4284 21.3205 33.5851 21.1886 33.717C21.0566 33.8489 20.9 33.9536 20.7277 34.025C20.5553 34.0964 20.3705 34.1331 20.184 34.1331H16.0157C15.6559 34.1359 15.3089 34.0002 15.0465 33.754C14.7841 33.5079 14.6265 33.1703 14.6063 32.8111C14.5957 32.5584 14.6366 32.3062 14.7265 32.0697C14.8164 31.8333 14.9534 31.6176 15.1292 31.4357C15.305 31.2539 15.516 31.1096 15.7492 31.0118C15.9825 30.9139 16.2332 30.8645 16.4861 30.8665C16.4842 30.6221 16.5307 30.3796 16.6229 30.1532C16.7151 29.9268 16.8512 29.7209 17.0233 29.5474C17.1955 29.3739 17.4003 29.2362 17.6259 29.1422C17.8516 29.0482 18.0936 28.9998 18.338 28.9998V28.8589C18.3293 28.4293 18.484 28.0123 18.7709 27.6924C19.0578 27.3725 19.4555 27.1734 19.8835 27.1354C20.1051 27.1235 20.3268 27.1569 20.535 27.2335C20.7433 27.31 20.9337 27.4282 21.0948 27.5809C21.2559 27.7335 21.3841 27.9173 21.4718 28.1212C21.5595 28.325 21.6047 28.5446 21.6047 28.7665V32.7124ZM24.4047 28.7665C24.4047 28.5446 24.4499 28.325 24.5376 28.1212C24.6252 27.9173 24.7535 27.7335 24.9146 27.5809C25.0756 27.4282 25.2661 27.31 25.4744 27.2335C25.6826 27.1569 25.9043 27.1235 26.1259 27.1354C26.5539 27.1734 26.9516 27.3725 27.2385 27.6924C27.5253 28.0123 27.6801 28.4293 27.6714 28.8589V28.9998C27.9158 28.9998 28.1578 29.0482 28.3834 29.1422C28.6091 29.2362 28.8139 29.3739 28.986 29.5474C29.1582 29.7209 29.2943 29.9268 29.3865 30.1532C29.4787 30.3796 29.5252 30.622 29.5232 30.8664C29.7762 30.8644 30.0269 30.9139 30.2601 31.0118C30.4934 31.1096 30.7043 31.2539 30.8801 31.4357C31.0559 31.6176 31.193 31.8333 31.2829 32.0697C31.3728 32.3062 31.4137 32.5584 31.4031 32.8111C31.3829 33.1703 31.2252 33.5079 30.9628 33.7541C30.7005 34.0002 30.3535 34.1359 29.9937 34.1331H25.8254C25.6388 34.1331 25.4541 34.0964 25.2817 34.025C25.1094 33.9536 24.9527 33.8489 24.8208 33.717C24.6889 33.5851 24.5842 33.4284 24.5128 33.2561C24.4414 33.0837 24.4047 32.899 24.4047 32.7124V28.7665Z" fill="black"/>
<path d="M29.5307 33.1999C29.5307 32.9524 29.4324 32.715 29.2574 32.54C29.0823 32.3649 28.8449 32.2666 28.5974 32.2666C28.3499 32.2666 28.1125 32.3649 27.9374 32.54C27.7624 32.715 27.6641 32.9524 27.6641 33.1999H29.5307Z" fill="black"/>
<path d="M11.3333 8.93333C11.7046 8.93333 12.0607 9.08083 12.3233 9.34338C12.5858 9.60593 12.7333 9.96203 12.7333 10.3333C12.7333 10.7046 12.5858 11.0607 12.3233 11.3233C12.0607 11.5858 11.7046 11.7333 11.3333 11.7333C11.2096 11.7333 11.0909 11.7825 11.0034 11.87C10.9158 11.9575 10.8667 12.0762 10.8667 12.2V14.5333H11.8V12.6197C12.2326 12.5314 12.6313 12.3222 12.9497 12.0164C13.2682 11.7106 13.4933 11.3207 13.599 10.892C13.7047 10.4633 13.6866 10.0134 13.5468 9.59464C13.407 9.17583 13.1513 8.80528 12.8093 8.52603C12.4673 8.24677 12.0531 8.07027 11.6148 8.01703C11.1765 7.96379 10.7321 8.03599 10.3332 8.22524C9.9343 8.4145 9.59728 8.71305 9.36129 9.0862C9.1253 9.45936 9.00002 9.89181 9 10.3333H9.93333C9.93374 9.96215 10.0814 9.60629 10.3438 9.34383C10.6063 9.08137 10.9622 8.93374 11.3333 8.93333Z" fill="black"/>
<path d="M11.8005 15.4658H10.8672V16.3992H11.8005V15.4658Z" fill="black"/>
<path d="M31.862 14.9995L27.1953 13.1328V19.6661L31.862 21.5328V14.9995Z" fill="black"/>
<path d="M32.3359 21.5328L37.0026 19.6661V13.1328L32.3359 14.9995V21.5328Z" fill="black"/>
<path d="M11.2037 23.5828C11.3911 23.817 11.6287 24.0061 11.899 24.136C12.1694 24.2659 12.4655 24.3334 12.7654 24.3334H17.8708V18.7334H11.8042V22.0001H9.9375L11.2037 23.5828ZM16.4708 22.7001H15.0708V22.2334H16.4708V22.7001ZM13.2042 20.3667H16.4708V20.8334H13.2042V20.3667ZM13.2042 22.2334H14.1375V22.7001H13.2042V22.2334Z" fill="black"/>
<path d="M22.0734 8.93359C21.3715 8.93323 20.695 9.19665 20.1782 9.67163C19.6614 10.1466 19.342 10.7985 19.2833 11.4979C19.2245 12.1974 19.4308 12.8934 19.8612 13.4479C20.2915 14.0024 20.9146 14.3749 21.6067 14.4916V18.2669H22.54V14.4916C23.2322 14.3749 23.8552 14.0024 24.2856 13.4479C24.7159 12.8934 24.9222 12.1974 24.8635 11.4979C24.8048 10.7985 24.4853 10.1466 23.9685 9.67163C23.4517 9.19665 22.7753 8.93323 22.0734 8.93359ZM22.0734 10.5669C21.7641 10.5673 21.4675 10.6903 21.2488 10.909C21.0301 11.1278 20.9071 11.4243 20.9067 11.7336H20.44C20.4406 11.3006 20.6128 10.8854 20.919 10.5792C21.2252 10.273 21.6403 10.1008 22.0734 10.1003V10.5669Z" fill="black"/>
</svg>
